<?xml version="1.0" encoding="UTF-8"?>
<svg width="12px" height="12px" viewBox="0 0 12 12" version="1.1" xmlns="http://www.w3.org/2000/svg" xmlns:xlink="http://www.w3.org/1999/xlink">
    <title>dianhua@2x</title>
    <g id="页面-1" stroke="none" stroke-width="1" fill="none" fill-rule="evenodd">
        <g id="校验中心" transform="translate(-1432.000000, -25.000000)" fill="#000000" fill-rule="nonzero">
            <g id="dianhua" transform="translate(1432.000000, 25.000000)">
                <path d="M3.54461779,4.62655477 C3.63863906,4.90539703 3.78140954,5.15016453 3.94288047,5.3824437 C4.14970996,5.67996654 4.36273258,5.97373595 4.58547736,6.25947966 C4.72845543,6.44287799 4.89094702,6.61148751 5.04963277,6.78210348 C5.32507098,7.07820797 5.63112881,7.34099877 5.95740942,7.57884753 C6.24824393,7.79095861 6.54125815,8.00082109 6.84266248,8.19729583 C7.0044967,8.30280651 7.17741973,8.39709155 7.38418002,8.44858423 C7.46699139,8.26930255 7.55111751,8.08964034 7.63313311,7.9090268 C7.74419411,7.66438038 7.85369819,7.41793509 8.06064878,7.23560918 C8.21464646,7.09993281 8.39312252,7.03257894 8.60425952,7.05423458 C8.90114875,7.0847289 9.15781731,7.2207685 9.41189098,7.35801887 C9.67065273,7.49784648 9.92514158,7.6473949 10.1710154,7.80870517 C10.4566775,7.99606448 10.7403328,8.18894146 11.0072771,8.40150226 C11.2466637,8.59218256 11.4683705,8.80655951 11.6858044,9.02266615 C11.8107394,9.14689201 11.9113863,9.29644042 11.968145,9.46717748 C12.035093,9.66846073 11.9886965,9.86010964 11.9014738,10.0446323 C11.8151334,10.2272695 11.6905444,10.3839443 11.5539671,10.5302236 C11.4353117,10.6573553 11.3186631,10.7895031 11.1835907,10.8974527 C10.9466433,11.0868703 10.7040736,11.2715659 10.449481,11.4360069 C10.1486994,11.630233 9.82567105,11.784884 9.48060348,11.8897893 C9.22569944,11.9673137 8.96641871,12.0147762 8.70051238,11.9958362 C8.47235295,11.9796463 8.24921028,11.9301947 8.02999455,11.8609728 C7.63749251,11.7370237 7.26469428,11.5678952 6.90281186,11.3747934 C6.4709022,11.1442958 6.05662044,10.8839611 5.6595514,10.5977331 C5.37454672,10.3922986 5.0927943,10.1817616 4.81799617,9.96297391 C4.56686336,9.76302252 4.3193807,9.5571729 4.0839383,9.33919821 C3.7130084,8.99578688 3.35077999,8.64279309 2.99047181,8.28813882 C2.84396471,8.14395241 2.70894429,7.98760634 2.57446014,7.83179646 C2.41247023,7.64407393 2.25714052,7.45069532 2.09800497,7.26049934 C1.74684808,6.84087816 1.42489227,6.3992381 1.12798572,5.9403704 C0.942434274,5.6536062 0.773784152,5.35554716 0.605618428,5.05798973 C0.408009412,4.70833423 0.251399558,4.33956575 0.13148136,3.95623331 C0.0651734437,3.74429521 0.0205933568,3.52824047 0.00469536949,3.3045924 C-0.0225681955,2.92075836 0.0716952525,2.5638901 0.214811715,2.21459784 C0.354675912,1.87324483 0.535245188,1.55420473 0.752281227,1.25676838 C0.871265277,1.09367653 0.999746584,0.937070996 1.13066711,0.783267555 C1.22280277,0.675006675 1.32045687,0.569963004 1.42587833,0.474830418 C1.61298672,0.30596144 1.80781055,0.14719379 2.04828702,0.0542579046 C2.30071726,-0.0433135288 2.53216355,-0.00628101332 2.75293622,0.141157189 C2.96812124,0.28485929 3.142186,0.471820749 3.3156107,0.661030826 C3.63898505,1.01381705 3.91634346,1.40116234 4.17553771,1.80146296 C4.3267329,2.03497021 4.46298157,2.27819829 4.60407401,2.51815726 C4.72961446,2.73165207 4.83129929,2.95638983 4.90329866,3.19346024 C4.98439741,3.46047146 4.95734142,3.70617298 4.76609852,3.92644816 C4.6623551,4.04595199 4.54048208,4.13731387 4.40220939,4.20612067 C4.15296221,4.33012167 3.89961511,4.44595857 3.64844771,4.56615425 C3.61403957,4.58263812 3.5822436,4.60448401 3.54461779,4.62655477 Z M7.40312267,9.18733198 C7.31036425,9.16783844 7.21499363,9.15637065 7.12527987,9.12739844 C6.80560756,9.02425742 6.51864806,8.85459278 6.23891966,8.67321819 C5.87696805,8.43856934 5.5288731,8.18461723 5.20300767,7.90138158 C5.01527651,7.73820324 4.81944933,7.58294687 4.64439851,7.40703808 C4.44979957,7.21142819 4.27217116,6.99864254 4.09194787,6.78921247 C3.96298216,6.63931811 3.83282283,6.48904322 3.71928804,6.32762917 C3.52152333,6.04648643 3.32796235,5.76162489 3.14817154,5.46880679 C3.00029779,5.22794838 2.87235275,4.9760027 2.82678661,4.68887525 C2.79089072,4.46259808 2.86634994,4.27869815 3.01986323,4.12733355 C3.17021075,3.97913428 3.36641854,3.8982197 3.55477246,3.80779184 C3.75859189,3.70990906 3.95983374,3.60668155 4.16264982,3.50665397 C4.22445993,3.47615965 4.23127583,3.43125707 4.20553459,3.37307052 C4.13870769,3.22213836 4.08393836,3.06463339 4.00417164,2.92093129 C3.86366737,2.66775753 3.71859608,2.41584644 3.5562083,2.17644097 C3.36048487,1.88789521 3.14609562,1.61188963 2.93713833,1.33242469 C2.78865911,1.13383974 2.61646266,0.956962324 2.42848932,0.795236922 C2.33868905,0.717989266 2.29604648,0.710413241 2.19982821,0.77809577 C2.1089554,0.842024865 2.01519362,0.905556143 1.9376931,0.984066468 C1.78021829,1.14361246 1.62243208,1.30488813 1.48358854,1.48031263 C1.22548416,1.80639254 1.00548995,2.15826202 0.855765186,2.54851319 C0.769978357,2.77212666 0.692668123,3.00238211 0.726263205,3.24647502 C0.752661823,3.4383315 0.778005167,3.63558459 0.844313095,3.81550626 C0.953471192,4.11174912 1.08565454,4.40074462 1.22583013,4.68403217 C1.41581018,5.06796996 1.64524975,5.4299408 1.89069112,5.78104923 C2.04252638,5.99826288 2.19315071,6.21682565 2.35605749,6.42565033 C2.56300808,6.69091457 2.7781585,6.95005574 2.99664766,7.20596238 C3.18797705,7.43007746 3.37994652,7.6548671 3.58750257,7.863588 C3.9048741,8.18276648 4.23262515,8.49184359 4.56233101,8.79837808 C4.76092606,8.98300448 4.9667695,9.16060838 5.17816599,9.33042869 C5.41843489,9.52346135 5.66776856,9.70521647 5.91447275,9.89013693 C6.35750581,10.2222015 6.82560546,10.515625 7.31415277,10.7751813 C7.63008845,10.9430471 7.95489864,11.0950171 8.30295899,11.1853411 C8.46647123,11.2277357 8.63416988,11.2654774 8.80197234,11.276997 C8.98806006,11.2897275 9.1713799,11.2387883 9.34701892,11.1771424 C9.63880488,11.0746414 9.91356843,10.9347446 10.1676594,10.7588358 C10.3427275,10.6376542 10.5108759,10.506008 10.677675,10.3734796 C10.8912166,10.2038496 11.0765951,10.0065965 11.2283093,9.77919504 C11.2679591,9.71974583 11.287784,9.66065984 11.2233444,9.59951554 C11.1825701,9.56082253 11.1554623,9.50772125 11.1148783,9.46873419 C10.9893551,9.34803688 10.866029,9.22405318 10.7313545,9.11428747 C10.5222934,8.94384447 10.3097379,8.77670517 10.0891382,8.62174284 C9.85587553,8.45788994 9.61579693,8.30261625 9.37066696,8.15711529 C9.12941201,8.01384562 8.8830365,7.87787521 8.6143104,7.78827761 C8.55701538,7.76918191 8.51795374,7.78006162 8.49184921,7.82638253 C8.42393247,7.94678578 8.35584274,8.06750039 8.2966102,8.19226245 C8.18509942,8.42715345 8.10010834,8.67512086 7.94161288,8.88624601 C7.80704219,9.06554497 7.63707735,9.17638309 7.40312267,9.18733198 Z" id="形状"></path>
            </g>
        </g>
    </g>
</svg>