<?xml version="1.0" standalone="no"?><!DOCTYPE svg PUBLIC "-//W3C//DTD SVG 1.1//EN" "http://www.w3.org/Graphics/SVG/1.1/DTD/svg11.dtd"><svg t="1639377859155" class="icon" viewBox="0 0 1024 1024" version="1.1" xmlns="http://www.w3.org/2000/svg" p-id="4068" xmlns:xlink="http://www.w3.org/1999/xlink" width="128" height="128"><defs><style type="text/css"></style></defs><path d="M511.85595 1023.991124C376.598298 1023.989856 249.009444 971.656147 152.591562 876.627981c-96.507909-95.115657-150.68147-222.114897-152.54161-357.602055-0.948456-69.106667 11.669303-136.337978 37.502042-199.827454 24.950219-61.317411 61.111997-116.573834 107.482353-164.235004 46.369089-47.659902 100.611121-85.325514 161.219726-111.948211 62.752774-27.56608 129.610029-42.023691 198.71416-42.973414 2.397767-0.032968 4.777782-0.049452 7.167942-0.049452 135.257652 0 262.849042 52.334977 359.268192 147.363143 96.511713 95.116925 150.686542 222.117433 152.545414 357.603323 0.949724 69.106667-11.665499 136.339246-37.498238 199.827454-24.948951 61.317411-61.110729 116.573834-107.481085 164.235004-46.370357 47.659902-100.612389 85.324246-161.220994 111.948211-62.752774 27.56608-129.611297 42.023691-198.71416 42.972146C516.637537 1023.97464 514.247377 1023.991124 511.85595 1023.991124zM512.091796 50.463425c-2.137829 0-4.290875 0.015216-6.435044 0.04438C382.592082 52.195498 267.420644 101.842338 181.35716 190.303589 95.293676 278.766108 48.826952 395.263863 50.517182 518.336141c3.441322 250.989542 210.421502 455.18395 461.393292 455.18395 2.136561 0 4.292143-0.015216 6.43758-0.04438 123.065938-1.687693 238.237376-51.334534 324.30086-139.795784 86.063484-88.462519 132.530208-204.960274 130.843782-328.03382C970.043766 254.659102 763.06105 50.463425 512.091796 50.463425z" p-id="4069"></path><path d="M482.993985 668.507879l0.115387-8.56273c0.523679-38.789051 3.975145-67.212292 10.261835-84.484837 6.777401-18.829636 17.954724-36.383676 33.211167-52.147315l0.17625-0.17625c22.456085-21.875346 46.036876-45.134068 72.085173-71.101214 25.675509-28.960868 38.693952-56.34309 38.693952-81.389676 0-30.053875-11.647747-55.545525-34.618635-75.764877-22.879593-20.102697-54.292752-30.297329-93.362028-30.297329-38.662252 0-69.607523 13.280917-91.97358 39.475033C397.319774 327.786562 386.100608 357.565283 384.235396 392.571922l-0.427312 7.999742L339.696015 400.571665l0.390541-8.822667c2.107398-47.60411 17.882449-86.96122 46.886428-116.978323 31.297772-32.342595 73.086884-48.73896 124.2122-48.73896 53.829936 0 96.596668 13.572554 127.110823 40.337265 30.398768 26.725404 45.808638 63.125563 45.808638 108.194963 0 36.16051-17.612367 71.791-52.347657 105.901171-53.495187 52.859924-83.665717 84.35677-89.656964 93.595338-8.169653 13.015907-13.199765 26.497166-14.882387 39.972084-1.344068 10.961765-2.132757 26.483218-2.344512 46.116759l-0.091295 8.358583L482.993985 668.507879z" p-id="4070"></path><path d="M502.051859 802.198297c-23.168695 0-42.018619-18.856264-42.018619-42.033835 0-23.169963 18.849924-42.019887 42.018619-42.019887 23.169963 0 42.018619 18.849924 42.018619 42.019887C544.070478 783.342033 525.221822 802.198297 502.051859 802.198297z" p-id="4071"></path></svg>