<?xml version="1.0" encoding="UTF-8"?>
<svg width="12px" height="11px" viewBox="0 0 12 11" version="1.1" xmlns="http://www.w3.org/2000/svg" xmlns:xlink="http://www.w3.org/1999/xlink">
    <title>shangchuan@2x</title>
    <g id="页面-1" stroke="none" stroke-width="1" fill="none" fill-rule="evenodd">
        <g id="校验中心" transform="translate(-1259.000000, -381.000000)" fill-rule="nonzero">
            <g id="编组-2" transform="translate(1246.000000, 371.000000)">
                <g id="shangchuan" transform="translate(13.000000, 10.000000)">
                    <path d="M10.579429,1.28595458 L5.42032473,1.28595458 C5.31466252,1.28595458 5.2134029,1.24681374 5.1370913,1.17707188 L3.96086542,0.108882707 C3.88406537,0.0391304875 3.7828491,0.000220174351 3.677632,0 L1.42056974,0 C0.636174569,0 0,0.617002006 0,1.37775765 L0,9.62224235 C0,10.382998 0.636174569,11 1.42056974,11 L10.579429,11 C11.3638242,11 12,10.382998 12,9.62224235 L12,2.66371223 C12.0007325,1.90295659 11.3645579,1.28595458 10.579429,1.28595458 Z M8.25486032,6.43902439 C8.10910786,6.58573338 7.90799341,6.66848331 7.69793241,6.66817623 C7.50495212,6.66817623 7.31123807,6.59843437 7.16154993,6.45823899 L6.8086088,6.12803261 L6.8086088,8.22313515 C6.8086088,8.63731643 6.46227154,8.97321602 6.0352201,8.97321602 C5.60816866,8.97321602 5.26183141,8.63731643 5.26183141,8.22313515 L5.26183141,6.08675681 L4.91842922,6.4005952 C4.60731271,6.68454422 4.11789121,6.67031119 3.8258526,6.36857087 C3.53308022,6.06683056 3.54775553,5.59215889 3.85887204,5.30892152 L5.49883762,3.81160639 C5.79894766,3.5376205 6.26855749,3.53975545 6.56573246,3.81801126 L8.23504866,5.37937504 C8.54249635,5.66617067 8.55130153,6.14084234 8.25486032,6.43902439 L8.25486032,6.43902439 Z" id="形状" fill="#0079fe"></path>
                    <path d="M12,2.66371223 C12,1.90295659 11.3638643,1.28595458 10.579517,1.28595458 L5.41999389,1.28595458 C5.31433812,1.28595458 5.21308468,1.24681374 5.13677774,1.17707188 L3.96062366,0.108882707 C3.88382829,0.0391304875 3.7826182,0.000220174351 3.67740752,0 L1.42048303,0 C0.636135738,0 0,0.617002006 0,1.37775765 L0,9.62224235 C0,10.382998 0.636135738,11 1.42048303,11 L5.65331703,11 C8.88755732,9.9602769 11.3506573,7.28304328 12,3.98097949 L12,2.66371223 Z M8.25435647,6.43902439 C8.1086129,6.58573338 7.90751072,6.66848331 7.69746255,6.66817623 C7.50449404,6.66817623 7.31079181,6.59843437 7.16111281,6.45823899 L6.80819321,6.12803261 L6.80819321,8.22313515 C6.80819321,8.63731643 6.4618771,8.97321602 6.03485173,8.97321602 C5.60782635,8.97321602 5.26151024,8.63731643 5.26151024,8.22313515 L5.26151024,6.08675681 L4.91812901,6.4005952 C4.60703149,6.68454422 4.11763987,6.67031119 3.82561908,6.36857087 C3.53286457,6.06683056 3.54753898,5.59215889 3.8586365,5.30892152 L5.49850199,3.81160639 C5.7985937,3.5376205 6.26817487,3.53975545 6.5653317,3.81801126 L8.23454601,5.37937504 C8.54197493,5.66617067 8.55077958,6.14084234 8.25435647,6.43902439 L8.25435647,6.43902439 Z" id="形状" fill="#0079fe"></path>
                    <path d="M5.49276051,1.25584224 C5.38568625,1.25584224 5.28307343,1.21761793 5.20574202,1.14950917 L4.01379738,0.106333073 C3.93597098,0.0382141949 3.83340208,0.000215018674 3.72677889,0 L1.43955386,0 C0.644676237,0 0,0.602554079 0,1.34549561 L0,7.99930501 C0.0193328514,7.99930501 0.039409274,8 0.0587421254,8 C2.00615512,8 3.81823815,7.45999479 5.33363627,6.53149162 L5.33363627,5.94353227 L4.98564494,6.25002172 C4.67037075,6.52732169 4.17440876,6.51342194 3.87846742,6.21874729 C3.58178251,5.92407263 3.59665393,5.46051603 3.91192812,5.18391104 L5.57380977,3.72165754 C5.87793039,3.45408739 6.35381597,3.45617236 6.65496231,3.72791243 L7.61119488,4.58969681 C8.44767324,3.60684989 9.05411743,2.47084211 9.39130435,1.25514725 L5.49276051,1.25514725 L5.49276051,1.25584224 Z" id="路径" fill=""></path>
                    <path d="M5.2173913,1.21493109 C5.17227579,1.19701378 5.13007095,1.17220521 5.09368747,1.13981623 L3.92796071,0.105436447 C3.85179866,0.0378919637 3.75142324,0.000213205586 3.64708023,0 L1.40876842,0 C0.630889576,0 0,0.597473201 0,1.33415008 L0,4.5 C2.11315263,3.99555896 3.9425141,2.8143951 5.2173913,1.21493109 L5.2173913,1.21493109 Z" id="路径" fill="#0079fe"></path>
                </g>
            </g>
        </g>
    </g>
</svg>