<?xml version="1.0" standalone="no"?><!DOCTYPE svg PUBLIC "-//W3C//DTD SVG 1.1//EN" "http://www.w3.org/Graphics/SVG/1.1/DTD/svg11.dtd"><svg class="icon" width="128px" height="128.00px" viewBox="0 0 1024 1024" version="1.1" xmlns="http://www.w3.org/2000/svg"><path fill="#707070" d="M991.304156 193.571721H376.154017a32.863256 32.863256 0 0 1-32.863256-32.863256 33.51814 33.51814 0 0 1 32.863256-32.863256h615.138232A32.851349 32.851349 0 0 1 1024.143598 160.708465a32.839442 32.839442 0 0 1-32.839442 32.863256z m0 350.279442H376.154017a32.863256 32.863256 0 0 1-32.863256-32.863256 33.51814 33.51814 0 0 1 32.863256-32.863256h615.138232a32.863256 32.863256 0 0 1 0.011907 65.726512z m0 350.946232H376.154017a33.51814 33.51814 0 0 1-32.863256-32.851348 32.863256 32.863256 0 0 1 32.863256-32.863256h615.138232a32.863256 32.863256 0 0 1 0.011907 65.714604zM104.079598 255.345116a33.482419 33.482419 0 0 1-23.659163-9.858976L9.442947 175.163535a33.530047 33.530047 0 0 1 0-46.663442 32.88707 32.88707 0 0 1 46.651535 0l47.985116 47.318326 99.899535-99.887628a32.827535 32.827535 0 0 1 46.651535 0 33.530047 33.530047 0 0 1 0 46.663442L127.083877 245.48614a32.863256 32.863256 0 0 1-23.004279 9.858976z m0 343.718698a33.530047 33.530047 0 0 1-23.659163-9.858977L9.442947 518.227349a32.863256 32.863256 0 0 1 0-46.008558 32.839442 32.839442 0 0 1 46.651535 0l47.985116 47.318325 99.899535-99.899535a32.863256 32.863256 0 0 1 46.651535 0 32.863256 32.863256 0 0 1 0 46.008559L127.083877 589.204837c-6.072558 6.191628-14.336 9.728-23.004279 9.858977z m0 357.518884a33.51814 33.51814 0 0 1-23.659163-7.227535L9.442947 875.746233a33.530047 33.530047 0 0 1 0-46.663442 33.506233 33.506233 0 0 1 46.663442 0l47.985116 47.973209 99.899535-100.554419a33.00614 33.00614 0 0 1 46.663442 46.663442L127.083877 949.343256a32.922791 32.922791 0 0 1-23.004279 7.239442z m0 0" /></svg>